<?xml version="1.0" encoding="UTF-8" standalone="no"?>
<!-- Created with Inkscape (http://www.inkscape.org/) -->

<svg
   xmlns:dc="http://purl.org/dc/elements/1.1/"
   xmlns:cc="http://creativecommons.org/ns#"
   xmlns:rdf="http://www.w3.org/1999/02/22-rdf-syntax-ns#"
   xmlns:svg="http://www.w3.org/2000/svg"
   xmlns="http://www.w3.org/2000/svg"
   xmlns:sodipodi="http://sodipodi.sourceforge.net/DTD/sodipodi-0.dtd"
   xmlns:inkscape="http://www.inkscape.org/namespaces/inkscape"
   version="1.1"
   id="svg3680"
   width="196"
   height="150"
   viewBox="0 0 196 150"
   sodipodi:docname="LogiFin.svg"
   inkscape:version="0.92.0 r15299">
  <metadata
     id="metadata3686">
    <rdf:RDF>
      <cc:Work
         rdf:about="">
        <dc:format>image/svg+xml</dc:format>
        <dc:type
           rdf:resource="http://purl.org/dc/dcmitype/StillImage" />
        <dc:title></dc:title>
      </cc:Work>
    </rdf:RDF>
  </metadata>
  <defs
     id="defs3684" />
  <sodipodi:namedview
     pagecolor="#ffffff"
     bordercolor="#666666"
     borderopacity="1"
     objecttolerance="10"
     gridtolerance="10"
     guidetolerance="10"
     inkscape:pageopacity="0"
     inkscape:pageshadow="2"
     inkscape:window-width="1366"
     inkscape:window-height="706"
     id="namedview3682"
     showgrid="false"
     inkscape:zoom="3.58"
     inkscape:cx="103.20259"
     inkscape:cy="160.38874"
     inkscape:window-x="-8"
     inkscape:window-y="-8"
     inkscape:window-maximized="1"
     inkscape:current-layer="svg3680" />
  <g
     id="g3745"
     transform="translate(0.27932899,-24.301676)">
    <path
       style="fill:#f5f5f5"
       d="m -0.27932978,99.581005 v -75 H 97.72067 h 98 v 75 74.999995 h -98 -97.99999978 z"
       id="path3749"
       inkscape:connector-curvature="0" />
    <path
       style="fill:#737373"
       d="m 0.72530082,172.24252 c 0.00255,-0.0888 1.11686578,-2.86152 2.47626448,-6.16152 1.3593987,-3.3 2.4823149,-6.9574 2.4953694,-8.12755 0.013054,-1.17016 0.7364556,-2.71907 1.607558,-3.44202 2.7752113,-2.30322 4.7794573,0.24914 6.9819403,8.89129 1.723326,6.76205 1.834094,8.1946 0.668212,8.64199 -3.060268,1.17433 -5.3103722,0.46555 -6.2339748,-1.96371 -1.1670006,-3.06943 -3.7455541,-3.27948 -4.180449,-0.34052 -0.1757531,1.18772 -1.107051,2.2729 -2.069551,2.41152 -0.9625,0.13862 -1.74791618,0.17935 -1.74536938,0.0905 z M 7.7206702,164.081 c 0,-0.82499 -0.45,-1.5 -1,-1.5 -0.55,0 -1,0.67501 -1,1.5 0,0.825 0.45,1.5 1,1.5 0.55,0 1,-0.675 1,-1.5 z m 10.9351098,7.4599 c -0.590685,-0.36507 -0.91576,-3.01489 -0.742757,-6.05455 l 0.307647,-5.40535 3.819788,-0.31452 c 5.161157,-0.42498 6.204652,0.74401 6.191452,6.93601 l -0.01124,5.2729 -4.257243,0.10735 c -2.341483,0.059 -4.729924,-0.18478 -5.307647,-0.54184 z m 13.449708,0.27479 c -0.641492,-0.42262 -1.02836,-3.0709 -0.91078,-6.23469 0.18834,-5.0678 0.391311,-5.5 2.582921,-5.5 2.208783,0 2.37178,0.36722 2.284094,5.14596 -0.123654,6.73894 -1.145385,8.44053 -3.956235,6.58873 z m 6.700412,-0.18202 c -0.958336,-0.59227 -0.875703,-1.61838 0.370526,-4.60102 1.445698,-3.46003 1.450932,-3.92437 0.05305,-4.70666 -0.852981,-0.47735 -1.289853,-1.29024 -0.970825,-1.80645 0.820623,-1.3278 6.833007,-1.16755 8.219633,0.21908 0.876825,0.87682 1.517073,0.8593 2.639529,-0.0723 4.391451,-3.64458 11.036413,1.93572 9.045904,7.59657 -0.956053,2.71893 -1.245065,2.82308 -8.215516,2.96052 -3.973532,0.0784 -7.828571,0.37421 -8.566753,0.65748 -0.738182,0.28327 -1.897181,0.172 -2.575552,-0.24726 z m 7.741717,-5.62978 c 0.372739,-3.33225 -1.162086,-2.3758 -2.319491,1.44543 -0.53266,1.75861 -0.368512,2.25363 0.637605,1.92287 0.745217,-0.24498 1.502065,-1.76071 1.681886,-3.3683 z m 7.173053,0.0771 c 0,-1.925 -0.45,-3.5 -1,-3.5 -1.108875,0 -1.386765,5.2799 -0.333333,6.33333 1.150946,1.15096 1.333333,0.76338 1.333333,-2.83333 z m 24.180284,5.21723 c -3.521527,-4.24318 -3.591961,-11.71723 -0.11042,-11.71723 1.342736,0 2.15265,1.17041 2.940964,4.25 0.598354,2.3375 1.30594,4.88902 1.572414,5.67005 0.266473,0.78103 -0.09324,1.78665 -0.799372,2.23469 -1.767215,1.12132 -2.370672,1.04806 -3.603586,-0.43751 z M 94.22682,169.609 c -0.372468,-1.69584 -0.592165,-6.55839 -0.488215,-10.80567 0.103949,-4.24727 0.142438,-8.22686 0.08553,-8.8435 -0.05691,-0.61664 -2.423375,-1.42892 -5.258819,-1.80505 -6.532086,-0.86651 -15.738289,-4.58713 -21.091654,-8.52404 -5.176762,-3.80704 -6.196045,-3.80855 -7.768824,-0.0115 -1.563396,3.77437 -3.300275,4.73243 -9.000446,4.96462 -10.352854,0.42169 -10.688542,-0.72239 -2.929962,-9.98579 3.270432,-3.90475 5.94624,-7.46874 5.94624,-7.91998 0,-0.45125 -1.296978,-3.6952 -2.882173,-7.20877 -1.585196,-3.51357 -3.193068,-8.41331 -3.573051,-10.88831 -1.315982,-8.5716 -0.379123,-8 -13.112164,-8 -10.765945,0 -11.432612,-0.11663 -11.432612,-2.000005 0,-1.883375 0.666667,-2 11.432612,-2 12.736295,0 11.819515,0.56037 13.088215,-8 1.172137,-7.908833 7.1479,-18.88211 13.886641,-25.5 6.209891,-6.098525 16.265527,-11.915745 22.713683,-13.139943 4.697985,-0.891924 5.626491,-1.862384 6.379375,-6.667625 0.361279,-2.305838 1.515916,-6.557005 2.56586,-9.447038 1.049945,-2.890034 1.914531,-5.477534 1.921302,-5.75 0.0068,-0.272467 0.01231,-1.170394 0.01231,-1.995394 0,-0.833333 0.888889,-1.5 2,-1.5 1.362734,0 2,0.666667 2,2.092271 0,1.150749 0.9,3.236435 2.000002,4.634858 1.1,1.398424 2.03458,3.944402 2.07685,5.65773 0.11214,4.545629 2.19669,10.7727 3.92492,11.724744 0.82403,0.453935 5.0753,2.269255 9.44727,4.034044 6.5651,2.65007 9.1916,4.440263 15.0861,10.28253 4.45114,4.411696 8.18375,9.237749 9.91832,12.823823 2.72248,5.628511 2.86856,5.749749 6.91389,5.738131 2.27296,-0.0065 6.52434,-0.648498 9.44753,-1.426601 6.61164,-1.759911 12.18512,-1.058781 12.18512,1.532856 0,1.028734 -2.74174,4.105797 -6.25,7.014386 -3.4375,2.849927 -6.39141,5.770113 -6.56424,6.489302 -0.23042,0.958789 1.50357,1.386888 6.5,1.604772 5.25837,0.229306 6.81424,0.639644 6.81424,1.797154 0,1.204409 -2.038,1.598535 -10.34199,2.000005 -11.87415,0.57407 -13.4149,1.55894 -14.57856,9.31877 -0.36216,2.41507 -2.3786,7.75455 -4.48097,11.86551 l -3.82249,7.47448 1.97169,2.70669 c 1.20127,1.64907 1.78724,3.67154 1.49964,5.17601 l -0.47204,2.46932 20.34397,-0.48106 c 11.18918,-0.26459 21.04389,-0.21249 21.89935,0.11578 3.58381,1.37524 6.01792,10.82764 3.07869,11.95553 -0.77148,0.29605 -3.58398,-0.3765 -6.25,-1.49455 -8.39593,-3.52102 -29.05224,-5.20326 -44.34729,-3.61161 -11.04668,1.14955 -24.19096,3.55807 -27.91922,5.11584 -1.95665,0.81754 -4.55948,1.23496 -5.78407,0.92761 -2.1805,-0.54727 -2.232412,-0.34699 -2.511616,9.6897 -0.239483,8.60885 -0.550411,10.2993 -1.943414,10.56591 -1.152568,0.2206 -1.864853,-0.62295 -2.335532,-2.76594 z m 0.237498,-41.528 c 0.134007,-8.79999 0.521907,-17.4579 0.862002,-19.23979 0.680973,-3.56789 2.39435,-3.47332 2.39435,0.13214 0,1.25088 0.286768,2.56109 0.637262,2.91158 0.350494,0.3505 0.571161,7.963 0.490372,16.91667 l -0.146889,16.2794 2.591465,-3 c 1.42531,-1.65 3.60828,-4.125 4.85105,-5.5 1.24277,-1.375 5.21017,-5.9755 8.81646,-10.22334 l 6.55688,-7.72334 -1.54539,-5.27666 c -0.84997,-2.90216 -2.63073,-6.99724 -3.95726,-9.10017 -1.9745,-3.13018 -2.67317,-3.60665 -3.8529,-2.62756 -0.96421,0.80023 -1.85467,0.87027 -2.69105,0.21167 -0.6875,-0.54136 -3.37121,-1.26062 -5.96379,-1.59835 -3.821937,-0.497878 -4.894336,-0.291452 -5.668014,1.09103 -0.892598,1.59499 -1.084617,1.58709 -2.973507,-0.12233 -2.020128,-1.828194 -4.001378,-1.633762 -11.144689,1.0937 -0.825,0.315 -2.407806,0.48733 -3.517347,0.38296 -3.369815,-0.31698 -6.503912,3.6907 -12.280099,15.70301 -4.152961,8.63661 -5.271022,11.86754 -4.526181,13.07964 1.649942,2.685 11.482728,8.9829 17.323627,11.09579 3.025,1.09427 7.3,1.88256 9.5,1.75176 l 4,-0.23781 z m 23.756352,11.72664 c 4.66059,-2.54155 5.02087,-3.01514 5.3075,-6.97664 0.16912,-2.3375 -0.1031,-4.25 -0.60494,-4.25 -1.5118,0 -11.20256,10.76134 -11.20256,12.44014 0,2.093 0.66401,1.96903 6.5,-1.2135 z m 13.77519,-0.72664 c 0.38415,-1.70876 -3.8764,-1.68543 -5.29927,0.029 -1.20393,1.45064 -1.00352,1.59032 1.86269,1.29825 1.76647,-0.18 3.31293,-0.77727 3.43658,-1.32727 z m 5.42591,-18.24999 c 4.72342,-8.55945 3.42444,-11.06996 -2.54243,-4.91372 -2.83373,2.92367 -3.1084,3.66573 -2.22091,6 1.35987,3.57674 2.30964,3.36016 4.76334,-1.08628 z m -74.390784,-8.30247 c 2.579326,-4.97886 4.689684,-9.70386 4.689684,-10.5 0,-1.14905 -1.740533,-1.44753 -8.440983,-1.44753 -4.642541,0 -8.689863,0.40269 -8.99405,0.89488 -1.667494,2.69806 4.12396,20.10512 6.689118,20.10512 0.751601,0 3.476905,-4.07361 6.056231,-9.05247 z m 71.599884,-5.97079 c 2.79939,-2.21279 5.0898,-4.46279 5.0898,-5 0,-1.2503 -13.68794,-1.29069 -14.45926,-0.0427 -0.69846,1.13013 2.34602,9.06592 3.47804,9.06592 0.44089,0 3.09203,-1.81047 5.89142,-4.02326 z M 94.689933,96.118041 c 1.043209,-1.25699 1.518022,-1.267295 3.372444,-0.07319 1.210822,0.779676 3.354683,1.153303 4.883613,0.851105 2.26408,-0.447503 2.56171,-0.844364 1.75863,-2.344947 -1.22379,-2.28667 -0.13498,-7.974818 1.65824,-8.66294 0.7468,-0.286572 1.35916,-1.260396 1.36081,-2.164052 0.004,-2.300715 -6.93344,-19.981984 -8.130716,-20.721944 -0.624842,-0.386173 -0.934807,3.347854 -0.849657,10.235483 0.08093,6.546371 -0.365025,12.225989 -1.125345,14.332213 l -1.259399,3.488763 -0.920073,-2.988763 c -0.50604,-1.64382 -0.840194,-7.778464 -0.742565,-13.632543 0.09763,-5.854079 -0.244816,-10.90479 -0.760987,-11.223801 -1.127783,-0.697009 -9.840373,22.093526 -10.74896,28.117307 -0.575473,3.815284 -0.402007,4.345502 1.69685,5.186614 3.571208,1.431152 8.45293,1.232389 9.807115,-0.399305 z M 73.955127,91.081005 C 76.459546,86.506676 86.622379,61.354769 88.257559,55.684041 88.924305,53.371797 88.801116,53.306877 84.772206,53.847267 73.939398,55.300251 60.583047,65.91123 54.897853,77.581005 51.72881,84.085974 49.226498,93.9724 50.306711,95.720222 c 0.315778,0.510939 5.149922,0.801136 10.742543,0.644882 l 10.168402,-0.284099 z m 68.582513,2.244314 c 0.20483,-1.780735 -0.22845,-2.964984 -1.22467,-3.347267 -1.43375,-0.550182 -18.62857,1.305888 -19.41882,2.096136 -0.19585,0.195853 -0.0546,1.305877 0.31379,2.466721 0.62947,1.983276 1.25343,2.093412 10.34131,1.82536 l 9.67142,-0.285264 z m 5.98303,-1.944314 c 1.76299,-1.762995 1.46671,-2.8 -0.8,-2.8 -1.33333,0 -2,0.666667 -2,2 0,2.266708 1.03701,2.562995 2.8,0.8 z m -9.53325,-9.666751 c 1.39191,-1.391907 -3.40545,-9.329983 -9.6029,-15.889695 -6.57345,-6.957692 -22.66385,-15.087852 -22.66385,-11.451595 0,1.0673 8.48339,23.374229 9.88595,25.994935 0.6123,1.144103 2.35095,2.295749 3.86367,2.559212 4.32135,0.752636 17.40886,-0.104585 18.51713,-1.212857 z m -27.5913,90.133056 c -0.74955,-1.24127 4.70815,-17.13965 6.07455,-17.69526 2.72105,-1.10643 4.12087,0.89985 6.08515,8.72148 1.54886,6.16746 1.75822,8.34592 0.85715,8.91881 -2.25683,1.43486 -4.64977,0.78321 -6.28426,-1.71133 -1.94887,-2.97435 -4.40804,-3.28622 -4.40804,-0.55903 0,2.06164 -1.54843,3.61059 -2.32455,2.32533 z m 5.32455,-7.76631 c 0,-0.82499 -0.45,-1.5 -1,-1.5 -0.55,0 -1,0.67501 -1,1.5 0,0.825 0.45,1.5 1,1.5 0.55,0 1,-0.675 1,-1.5 z m 11.22788,7.33027 c -0.40034,-0.39903 -0.57373,-3.22407 -0.38533,-6.27789 l 0.34255,-5.55238 h 3.78501 c 4.1802,0 6.49733,1.93337 5.63534,4.70201 -0.72061,2.31452 0.83109,4.77806 3.01658,4.78926 2.68172,0.0137 2.87998,2.49 0.2113,2.6391 -7.79701,0.43563 -11.9669,0.33636 -12.60545,-0.3001 z m 23.70111,0.12585 c -0.58371,-0.36075 -0.9086,-3.02942 -0.73664,-6.05076 l 0.30765,-5.40536 4.25,-0.18955 c 3.20367,-0.14288 4.25,0.18146 4.25,1.31739 0,1.05186 -0.60397,1.31524 -2,0.87216 -2.46692,-0.78297 -2.59541,0.31672 -0.25,2.13976 1.66667,1.29547 1.66667,1.42501 0,2.72048 -2.29447,1.78345 -2.21337,2.63976 0.25,2.63976 1.1,0 2,0.40077 2,0.89059 0,1.08877 -6.61944,1.96264 -8.07101,1.06553 z m 27.39026,-0.89622 c -2.77706,-3.24338 -2.58653,-11.0599 0.26958,-11.0599 1.43133,0 2.02742,1.11202 4.2607,7.94839 0.86883,2.65959 0.84332,3.62825 -0.11151,4.23468 -1.86699,1.18578 -2.60167,0.99904 -4.41877,-1.12317 z m 7.12937,0.6668 c -0.31254,-0.81444 -0.42883,-3.67363 -0.25843,-6.35375 0.26571,-4.17935 0.63007,-4.91842 2.55981,-5.19249 2.07947,-0.29533 2.25,0.0647 2.25,4.75 0,3.70706 0.38074,5.06955 1.41667,5.06955 0.77916,0 1.64364,-0.5625 1.92105,-1.25 0.27741,-0.6875 0.53991,-0.2375 0.58333,1 0.0609,1.73481 -0.47476,2.25 -2.33926,2.25 -1.33002,0 -3.12623,0.27169 -3.99157,0.60375 -0.91324,0.35045 -1.81177,-0.0175 -2.1416,-0.87706 z M 60.72067,170.581 c 0,-0.55 0.45,-1 1,-1 0.55,0 1,0.45 1,1 0,0.55001 -0.45,1 -1,1 -0.55,0 -1,-0.44999 -1,-1 z m 3.663667,-2.17008 c -3.610457,-4.11456 -4.70253,-8.83636 -2.038667,-8.81461 1.03125,0.008 2.534908,0.43268 3.341462,0.9428 0.929636,0.58797 1.936323,0.53754 2.75,-0.13775 1.020947,-0.84732 1.283538,0.1873 1.283538,5.0572 0,7.12778 -1.125876,7.75068 -5.336333,2.95236 z m 8.336333,2.17008 c 0,-0.55 0.476558,-1 1.059017,-1 0.582459,0 0.780902,0.45 0.440983,1 -0.339919,0.55001 -0.816476,1 -1.059017,1 -0.242541,0 -0.440983,-0.44999 -0.440983,-1 z m 72,-0.43261 c 0,-0.78794 -0.89895,-1.71793 -1.99768,-2.06665 -2.65488,-0.84263 -3.72681,-5.20482 -1.76184,-7.16979 1.33304,-1.33304 1.78956,-1.21 4.10629,1.10673 3.72362,3.72362 4.65736,5.80356 3.51875,7.83814 -1.16722,2.08571 -3.86552,2.28923 -3.86552,0.29157 z m 17.5,0.43261 c -0.33992,-0.55 -0.14148,-1 0.44098,-1 0.58246,0 1.05902,0.45 1.05902,1 0,0.55001 -0.19844,1 -0.44098,1 -0.24254,0 -0.7191,-0.44999 -1.05902,-1 z m 3.5,-2.23844 c -3.37765,-4.22581 -4.31931,-7.70179 -2.29671,-8.47793 0.8589,-0.32959 2.43729,-0.0524 3.50754,0.61597 1.2981,0.81068 2.34177,0.88668 3.13505,0.22832 0.89401,-0.74196 1.22299,0.48479 1.32547,4.94259 0.1132,4.92408 -0.14411,5.92011 -1.51752,5.87416 -0.90961,-0.0304 -2.77883,-1.46283 -4.15383,-3.18311 z m -19.44721,-6.67615 c -0.32198,-0.52097 -0.15917,-1.21064 0.3618,-1.53262 0.52097,-0.32198 1.21065,-0.15917 1.53262,0.3618 0.32198,0.52097 0.15917,1.21065 -0.3618,1.53262 -0.52097,0.32198 -1.21065,0.15917 -1.53262,-0.3618 z"
       id="path3747"
       inkscape:connector-curvature="0" />
  </g>
  <text
     xml:space="preserve"
     style="font-style:normal;font-variant:normal;font-weight:normal;font-stretch:normal;font-size:12px;line-height:25px;font-family:Aharoni;-inkscape-font-specification:Aharoni;letter-spacing:0px;word-spacing:0px;fill:#000000;fill-opacity:1;stroke:none"
     x="47.486034"
     y="137.7095"
     id="text3727"><tspan
       sodipodi:role="line"
       id="tspan3725"
       x="47.486034"
       y="153.02786"></tspan></text>
  <flowRoot
     xml:space="preserve"
     id="flowRoot3737"
     style="fill:black;fill-opacity:1;stroke:none;font-family:Aharoni;font-style:normal;font-weight:normal;font-size:12px;line-height:25px;letter-spacing:0px;word-spacing:0px;-inkscape-font-specification:Aharoni;font-stretch:normal;font-variant:normal"><flowRegion
       id="flowRegion3739"><rect
         id="rect3741"
         width="1.396648"
         height="19.273743"
         x="133.51955"
         y="60.614525" /></flowRegion><flowPara
       id="flowPara3743"></flowPara></flowRoot>  <rect
     style="fill:#f9f9f9"
     id="rect3771"
     width="91.340782"
     height="22.067039"
     x="0.5586592"
     y="127.09497" />
  <rect
     style="fill:#f9f9f9"
     id="rect3773"
     width="91.251396"
     height="21.508375"
     x="104.7486"
     y="128.77095" />
  <text
     xml:space="preserve"
     style="font-style:normal;font-variant:normal;font-weight:normal;font-stretch:normal;font-size:12px;line-height:25px;font-family:Broadway;-inkscape-font-specification:Broadway;letter-spacing:0px;word-spacing:0px;fill:#000000;fill-opacity:1;stroke:none"
     x="27.653631"
     y="143.01675"
     id="text3777"><tspan
       sodipodi:role="line"
       id="tspan3775"
       x="27.653631"
       y="143.01675">ADRIAN    </tspan></text>
  <text
     xml:space="preserve"
     style="font-style:normal;font-variant:normal;font-weight:normal;font-stretch:normal;font-size:12px;line-height:25px;font-family:Broadway;-inkscape-font-specification:Broadway;letter-spacing:0px;word-spacing:0px;fill:#000000;fill-opacity:1;stroke:none"
     x="104.7486"
     y="145.53073"
     id="text3781"><tspan
       sodipodi:role="line"
       id="tspan3779"
       x="104.7486"
       y="163.63689" /></text>
  <text
     xml:space="preserve"
     style="font-style:normal;font-variant:normal;font-weight:normal;font-stretch:normal;font-size:12px;line-height:25px;font-family:Broadway;-inkscape-font-specification:Broadway;letter-spacing:0px;word-spacing:0px;fill:#000000;fill-opacity:1;stroke:none"
     x="105.58659"
     y="142.73743"
     id="text3785"><tspan
       sodipodi:role="line"
       id="tspan3783"
       x="105.58659"
       y="142.73743">   ZURITA</tspan></text>
</svg>
